Nunito-Black.ufo
<glyph name="exclam" format="1">
  <advance width="776"/>
  <unicode hex="0021"/>
  <outline>
    <component base="period" xOffset="78"/>
    <contour>
      <point x="303" y="593" type="line" smooth="yes"/>
      <point x="318" y="464"/>
      <point x="481" y="464"/>
      <point x="496" y="593" type="curve" smooth="yes"/>
      <point x="589" y="1334" type="line" smooth="yes"/>
      <point x="618" y="1579"/>
      <point x="180" y="1579"/>
      <point x="209" y="1334" type="curve" smooth="yes"/>
    </contour>
  </outline>
</glyph>
<glyph name="parenleft" format="1">
  <advance width="688"/>
  <unicode hex="0028"/>
  <outline>
    <contour>
      <point x="464" y="-263" type="curve" smooth="yes"/>
      <point x="531" y="-263"/>
      <point x="582" y="-210"/>
      <point x="582" y="-131" type="curve" smooth="yes"/>
      <point x="582" y="-102"/>
      <point x="571" y="-68"/>
      <point x="561" y="-33" type="curve" smooth="yes"/>
      <point x="489" y="183"/>
      <point x="451" y="389"/>
      <point x="451" y="601" type="curve" smooth="yes"/>
      <point x="451" y="823"/>
      <point x="492" y="1040"/>
      <point x="566" y="1261" type="curve" smooth="yes"/>
      <point x="576" y="1294"/>
      <point x="586" y="1328"/>
      <point x="586" y="1358" type="curve" smooth="yes"/>
      <point x="586" y="1439"/>
      <point x="532" y="1490"/>
      <point x="466" y="1490" type="curve" smooth="yes"/>
      <point x="396" y="1490"/>
      <point x="340" y="1411"/>
      <point x="307" y="1310" type="curve"/>
      <point x="213" y="1066"/>
      <point x="149" y="834"/>
      <point x="149" y="598" type="curve" smooth="yes"/>
      <point x="149" y="343"/>
      <point x="223" y="94"/>
      <point x="336" y="-172" type="curve" smooth="yes"/>
      <point x="362" y="-241"/>
      <point x="419" y="-263"/>
    </contour>
  </outline>
</glyph>
<glyph name="comma" format="1">
  <advance width="648"/>
  <unicode hex="002C"/>
  <outline>
    <contour>
      <point x="137" y="-299" type="curve" smooth="yes"/>
      <point x="258" y="-299" type="line" smooth="yes"/>
      <point x="287" y="-300"/>
      <point x="302" y="-288"/>
      <point x="314" y="-256" type="curve" smooth="yes"/>
      <point x="495" y="250" type="line" smooth="yes"/>
      <point x="500" y="264"/>
      <point x="503" y="303"/>
      <point x="461" y="306" type="curve" smooth="yes"/>
      <point x="270" y="306" type="line" smooth="yes"/>
      <point x="238" y="305"/>
      <point x="205" y="297"/>
      <point x="197" y="250" type="curve" smooth="yes"/>
      <point x="113" y="-256" type="line" smooth="yes"/>
      <point x="111" y="-268"/>
      <point x="109" y="-298"/>
    </contour>
  </outline>
</glyph>
<glyph name="hyphen" format="1">
  <advance width="790"/>
  <unicode hex="002D"/>
  <outline>
    <contour>
      <point x="148" y="425" type="curve" smooth="yes"/>
      <point x="620" y="425" type="line" smooth="yes"/>
      <point x="702" y="425"/>
      <point x="754" y="467"/>
      <point x="754" y="537" type="curve" smooth="yes"/>
      <point x="754" y="608"/>
      <point x="702" y="650"/>
      <point x="620" y="650" type="curve" smooth="yes"/>
      <point x="170" y="650" type="line" smooth="yes"/>
      <point x="88" y="650"/>
      <point x="36" y="608"/>
      <point x="36" y="537" type="curve" smooth="yes"/>
      <point x="36" y="467"/>
      <point x="79" y="425"/>
    </contour>
  </outline>
</glyph>
<glyph name="five" format="1">
  <advance width="1297"/>
  <unicode hex="0035"/>
  <outline>
    <contour>
      <point x="631" y="-27" type="curve" smooth="yes"/>
      <point x="951" y="-27"/>
      <point x="1192" y="152"/>
      <point x="1192" y="458" type="curve" smooth="yes"/>
      <point x="1192" y="766"/>
      <point x="1006" y="918"/>
      <point x="752" y="918" type="curve" smooth="yes"/>
      <point x="607" y="918"/>
      <point x="494" y="856"/>
      <point x="494" y="856" type="curve"/>
      <point x="504" y="1207" type="line"/>
      <point x="966" y="1207" type="line" smooth="yes"/>
      <point x="1058" y="1207"/>
      <point x="1111" y="1242"/>
      <point x="1111" y="1332" type="curve" smooth="yes"/>
      <point x="1111" y="1423"/>
      <point x="1053" y="1456"/>
      <point x="984" y="1456" type="curve" smooth="yes"/>
      <point x="427" y="1456" type="line" smooth="yes"/>
      <point x="274" y="1456"/>
      <point x="207" y="1431"/>
      <point x="207" y="1282" type="curve" smooth="yes"/>
      <point x="207" y="762" type="line" smooth="yes"/>
      <point x="207" y="595"/>
      <point x="341" y="555"/>
      <point x="414" y="618" type="curve"/>
      <point x="476" y="664"/>
      <point x="548" y="679"/>
      <point x="615" y="679" type="curve" smooth="yes"/>
      <point x="735" y="679"/>
      <point x="848" y="601"/>
      <point x="848" y="438" type="curve" smooth="yes"/>
      <point x="848" y="283"/>
      <point x="759" y="224"/>
      <point x="626" y="224" type="curve" smooth="yes"/>
      <point x="516" y="224"/>
      <point x="426" y="273"/>
      <point x="354" y="332" type="curve" smooth="yes"/>
      <point x="243" y="428"/>
      <point x="93" y="246"/>
      <point x="209" y="134" type="curve"/>
      <point x="290" y="65"/>
      <point x="430" y="-27"/>
    </contour>
  </outline>
</glyph>
<glyph name="less" format="1">
  <advance width="1288"/>
  <unicode hex="003C"/>
  <outline>
    <contour>
      <point x="982" y="24" type="line" smooth="yes"/>
      <point x="1061" y="-9"/>
      <point x="1146" y="207"/>
      <point x="1053" y="248" type="curve" smooth="yes"/>
      <point x="409" y="507" type="line"/>
      <point x="1051" y="757" type="line" smooth="yes"/>
      <point x="1170" y="807"/>
      <point x="1058" y="1018"/>
      <point x="979" y="985" type="curve" smooth="yes"/>
      <point x="212" y="677" type="line"/>
      <point x="45" y="604"/>
      <point x="72" y="406"/>
      <point x="186" y="354" type="curve"/>
    </contour>
  </outline>
</glyph>
<glyph name="E" format="1">
  <advance width="1249"/>
  <unicode hex="0045"/>
  <outline>
    <contour>
      <point x="666" y="1438" type="move" name="top"/>
    </contour>
    <contour>
      <point x="835" y="9" type="move" name="ogonek"/>
    </contour>
    <contour>
      <point x="681" y="0" type="move" name="bot"/>
    </contour>
    <contour>
      <point x="329" y="0" type="curve" smooth="yes"/>
      <point x="1049" y="0" type="line" smooth="yes"/>
      <point x="1121" y="0"/>
      <point x="1178" y="57"/>
      <point x="1178" y="134" type="curve" smooth="yes"/>
      <point x="1178" y="210"/>
      <point x="1121" y="269"/>
      <point x="1049" y="269" type="curve" smooth="yes"/>
      <point x="508" y="269" type="line"/>
      <point x="508" y="604" type="line"/>
      <point x="979" y="604" type="line" smooth="yes"/>
      <point x="1056" y="604"/>
      <point x="1118" y="662"/>
      <point x="1118" y="738" type="curve" smooth="yes"/>
      <point x="1118" y="815"/>
      <point x="1056" y="874"/>
      <point x="979" y="874" type="curve" smooth="yes"/>
      <point x="508" y="874" type="line"/>
      <point x="508" y="1185" type="line"/>
      <point x="1024" y="1185" type="line" smooth="yes"/>
      <point x="1101" y="1185"/>
      <point x="1163" y="1242"/>
      <point x="1163" y="1319" type="curve" smooth="yes"/>
      <point x="1163" y="1395"/>
      <point x="1101" y="1455"/>
      <point x="1024" y="1455" type="curve" smooth="yes"/>
      <point x="380" y="1455" type="line" smooth="yes"/>
      <point x="175" y="1455"/>
      <point x="150" y="1333"/>
      <point x="150" y="1164" type="curve" smooth="yes"/>
      <point x="150" y="256" type="line" smooth="yes"/>
      <point x="150" y="136"/>
      <point x="195" y="0"/>
    </contour>
  </outline>
</glyph>
<glyph name="asciicircum" format="1">
  <advance width="1288"/>
  <unicode hex="005E"/>
  <outline>
    <contour>
      <point x="261" y="540" type="curve" smooth="yes"/>
      <point x="314" y="540"/>
      <point x="348" y="589"/>
      <point x="378" y="654" type="curve" smooth="yes"/>
      <point x="660" y="1214" type="line"/>
      <point x="943" y="654" type="line" smooth="yes"/>
      <point x="975" y="593"/>
      <point x="1007" y="544"/>
      <point x="1060" y="544" type="curve" smooth="yes"/>
      <point x="1117" y="544"/>
      <point x="1163" y="582"/>
      <point x="1163" y="643" type="curve" smooth="yes"/>
      <point x="1163" y="670"/>
      <point x="1145" y="710"/>
      <point x="1131" y="742" type="curve" smooth="yes"/>
      <point x="819" y="1352" type="line"/>
      <point x="777" y="1443"/>
      <point x="732" y="1495"/>
      <point x="661" y="1495" type="curve" smooth="yes"/>
      <point x="581" y="1495"/>
      <point x="537" y="1427"/>
      <point x="502" y="1352" type="curve" smooth="yes"/>
      <point x="190" y="742" type="line" smooth="yes"/>
      <point x="175" y="710"/>
      <point x="157" y="671"/>
      <point x="157" y="645" type="curve" smooth="yes"/>
      <point x="157" y="581"/>
      <point x="204" y="540"/>
    </contour>
  </outline>
</glyph>
<glyph name="c" format="1">
  <advance width="1042"/>
  <unicode hex="0063"/>
  <outline>
    <contour>
      <point x="603" y="1029" type="move" name="top"/>
    </contour>
    <contour>
      <point x="587" y="0" type="move" name="bot"/>
    </contour>
    <contour>
      <point x="602" y="-12" type="curve" smooth="yes"/>
      <point x="734" y="-12"/>
      <point x="869" y="22"/>
      <point x="934" y="76" type="curve" smooth="yes"/>
      <point x="1045" y="167"/>
      <point x="956" y="358"/>
      <point x="832" y="292" type="curve" smooth="yes"/>
      <point x="777" y="264"/>
      <point x="703" y="244"/>
      <point x="643" y="244" type="curve" smooth="yes"/>
      <point x="475" y="244"/>
      <point x="407" y="374"/>
      <point x="407" y="509" type="curve" smooth="yes"/>
      <point x="407" y="692"/>
      <point x="505" y="767"/>
      <point x="642" y="774" type="curve" smooth="yes"/>
      <point x="712" y="778"/>
      <point x="789" y="747"/>
      <point x="826" y="728" type="curve" smooth="yes"/>
      <point x="950" y="660"/>
      <point x="1037" y="842"/>
      <point x="929" y="932" type="curve" smooth="yes"/>
      <point x="867" y="987"/>
      <point x="746" y="1027"/>
      <point x="613" y="1027" type="curve" smooth="yes"/>
      <point x="310" y="1027"/>
      <point x="80" y="814"/>
      <point x="80" y="508" type="curve" smooth="yes"/>
      <point x="80" y="148"/>
      <point x="337" y="-12"/>
    </contour>
  </outline>
</glyph>
<glyph name="i" format="1">
  <advance width="574"/>
  <unicode hex="0069"/>
  <outline>
    <contour>
      <point x="295" y="1208" type="curve" smooth="yes"/>
      <point x="399" y="1208"/>
      <point x="468" y="1272"/>
      <point x="468" y="1368" type="curve" smooth="yes"/>
      <point x="468" y="1462"/>
      <point x="400" y="1526"/>
      <point x="296" y="1526" type="curve" smooth="yes"/>
      <point x="192" y="1526"/>
      <point x="122" y="1462"/>
      <point x="122" y="1368" type="curve" smooth="yes"/>
      <point x="122" y="1272"/>
      <point x="192" y="1208"/>
    </contour>
    <contour>
      <point x="298" y="0" type="curve" smooth="yes"/>
      <point x="416" y="0"/>
      <point x="453" y="76"/>
      <point x="453" y="213" type="curve" smooth="yes"/>
      <point x="453" y="794" type="line" smooth="yes"/>
      <point x="453" y="931"/>
      <point x="406" y="1007"/>
      <point x="288" y="1007" type="curve" smooth="yes"/>
      <point x="177" y="1007"/>
      <point x="136" y="931"/>
      <point x="136" y="794" type="curve" smooth="yes"/>
      <point x="136" y="213" type="line" smooth="yes"/>
      <point x="136" y="76"/>
      <point x="179" y="0"/>
    </contour>
  </outline>
</glyph>
<glyph name="k" format="1">
  <advance width="1127"/>
  <unicode hex="006B"/>
  <outline>
    <contour>
      <point x="576" y="0" type="move" name="bot"/>
    </contour>
    <contour>
      <point x="273" y="0" type="curve" smooth="yes"/>
      <point x="390" y="0"/>
      <point x="438" y="76"/>
      <point x="438" y="213" type="curve" smooth="yes"/>
      <point x="438" y="503" type="line"/>
      <point x="805" y="70" type="line"/>
      <point x="933" y="-94"/>
      <point x="1161" y="84"/>
      <point x="1042" y="229" type="curve"/>
      <point x="759" y="538" type="line"/>
      <point x="1005" y="791" type="line"/>
      <point x="1120" y="925"/>
      <point x="932" y="1120"/>
      <point x="805" y="971" type="curve"/>
      <point x="438" y="570" type="line"/>
      <point x="438" y="1242" type="line" smooth="yes"/>
      <point x="438" y="1379"/>
      <point x="390" y="1455"/>
      <point x="273" y="1455" type="curve" smooth="yes"/>
      <point x="162" y="1455"/>
      <point x="120" y="1379"/>
      <point x="120" y="1242" type="curve" smooth="yes"/>
      <point x="120" y="213" type="line" smooth="yes"/>
      <point x="120" y="76"/>
      <point x="162" y="0"/>
    </contour>
  </outline>
</glyph>
<glyph name="x" format="1">
  <advance width="1118"/>
  <unicode hex="0078"/>
  <outline>
    <contour>
      <point x="904" y="-13" type="curve" smooth="yes"/>
      <point x="976" y="-13"/>
      <point x="1040" y="50"/>
      <point x="1039" y="119" type="curve" smooth="yes"/>
      <point x="1038" y="165"/>
      <point x="1010" y="220"/>
      <point x="973" y="269" type="curve"/>
      <point x="747.575" y="513.177" type="line"/>
      <point x="986" y="785" type="line"/>
      <point x="1022" y="833"/>
      <point x="1038" y="877"/>
      <point x="1037" y="915" type="curve" smooth="yes"/>
      <point x="1036" y="983"/>
      <point x="983" y="1029"/>
      <point x="919" y="1029" type="curve" smooth="yes"/>
      <point x="879" y="1029"/>
      <point x="835" y="1012"/>
      <point x="801" y="969" type="curve" smooth="yes"/>
      <point x="571.369" y="704.042" type="line"/>
      <point x="396" y="894" type="line"/>
      <point x="350" y="951"/>
      <point x="303" y="1007"/>
      <point x="247" y="1007" type="curve" smooth="yes"/>
      <point x="168" y="1007"/>
      <point x="97" y="948"/>
      <point x="99" y="869" type="curve" smooth="yes"/>
      <point x="100" y="820"/>
      <point x="132" y="762"/>
      <point x="170" y="713" type="curve"/>
      <point x="370.441" y="497.059" type="line"/>
      <point x="139" y="240" type="line"/>
      <point x="106" y="195"/>
      <point x="91" y="150"/>
      <point x="92" y="110" type="curve" smooth="yes"/>
      <point x="93" y="25"/>
      <point x="170" y="-34"/>
      <point x="243" y="-10" type="curve" smooth="yes"/>
      <point x="276" y="0"/>
      <point x="311" y="24"/>
      <point x="342" y="63" type="curve" smooth="yes"/>
      <point x="551.361" y="302.149" type="line"/>
      <point x="739" y="100" type="line"/>
      <point x="802" y="20"/>
      <point x="857" y="-13"/>
    </contour>
  </outline>
</glyph>
<glyph name="periodcentered" format="1">
  <advance width="648"/>
  <unicode hex="00B7"/>
  <outline>
    <contour>
      <point x="324" y="339" type="curve" smooth="yes"/>
      <point x="424" y="339"/>
      <point x="498" y="422"/>
      <point x="498" y="517" type="curve" smooth="yes"/>
      <point x="498" y="618"/>
      <point x="419" y="693"/>
      <point x="324" y="693" type="curve" smooth="yes"/>
      <point x="225" y="693"/>
      <point x="150" y="613"/>
      <point x="150" y="517" type="curve" smooth="yes"/>
      <point x="150" y="419"/>
      <point x="223" y="339"/>
    </contour>
  </outline>
</glyph>
<glyph name="oslash" format="1">
  <advance width="1262"/>
  <unicode hex="00F8"/>
  <outline>
    <component base="o"/>
    <contour>
      <point x="587" y="991" type="move" name="top"/>
    </contour>
    <contour>
      <point x="292" y="-171" type="curve" smooth="yes"/>
      <point x="315" y="-171"/>
      <point x="337" y="-159"/>
      <point x="353" y="-132" type="curve" smooth="yes"/>
      <point x="1016" y="1018" type="line" smooth="yes"/>
      <point x="1031" y="1048"/>
      <point x="1050" y="1089"/>
      <point x="1050" y="1118" type="curve" smooth="yes"/>
      <point x="1050" y="1161"/>
      <point x="1014" y="1189"/>
      <point x="975" y="1189" type="curve" smooth="yes"/>
      <point x="946" y="1189"/>
      <point x="925" y="1176"/>
      <point x="910" y="1150" type="curve" smooth="yes"/>
      <point x="240" y="-27" type="line" smooth="yes"/>
      <point x="226" y="-51"/>
      <point x="217" y="-76"/>
      <point x="217" y="-100" type="curve" smooth="yes"/>
      <point x="217" y="-139"/>
      <point x="252" y="-171"/>
    </contour>
  </outline>
</glyph>
<glyph name="OE" format="1">
  <advance width="1999"/>
  <unicode hex="0152"/>
  <outline>
    <contour>
      <point x="761" y="232" type="curve" smooth="yes"/>
      <point x="532" y="232"/>
      <point x="448" y="430"/>
      <point x="448" y="733" type="curve" smooth="yes"/>
      <point x="448" y="1040"/>
      <point x="551" y="1223"/>
      <point x="763" y="1223" type="curve" smooth="yes"/>
      <point x="899" y="1223"/>
      <point x="980" y="1208"/>
      <point x="997" y="1201" type="curve"/>
      <point x="997" y="257" type="line"/>
      <point x="986" y="249"/>
      <point x="887" y="231"/>
    </contour>
    <contour>
      <point x="732" y="-17" type="curve" smooth="yes"/>
      <point x="762" y="-17"/>
      <point x="1032" y="-1"/>
      <point x="1061" y="0" type="curve" smooth="yes"/>
      <point x="1734" y="0" type="line" smooth="yes"/>
      <point x="1841" y="0"/>
      <point x="1910" y="31"/>
      <point x="1910" y="134" type="curve" smooth="yes"/>
      <point x="1910" y="264"/>
      <point x="1789" y="269"/>
      <point x="1679" y="269" type="curve" smooth="yes"/>
      <point x="1350" y="269" type="line"/>
      <point x="1350" y="607" type="line"/>
      <point x="1620" y="607" type="line" smooth="yes"/>
      <point x="1759" y="607"/>
      <point x="1846" y="624"/>
      <point x="1846" y="740" type="curve" smooth="yes"/>
      <point x="1846" y="867"/>
      <point x="1742" y="875"/>
      <point x="1647" y="875" type="curve" smooth="yes"/>
      <point x="1350" y="875" type="line"/>
      <point x="1350" y="1186" type="line"/>
      <point x="1668" y="1186" type="line" smooth="yes"/>
      <point x="1810" y="1186"/>
      <point x="1894" y="1204"/>
      <point x="1894" y="1321" type="curve" smooth="yes"/>
      <point x="1894" y="1434"/>
      <point x="1811" y="1455"/>
      <point x="1717" y="1455" type="curve" smooth="yes"/>
      <point x="1107" y="1455" type="line" smooth="yes"/>
      <point x="1055" y="1455"/>
      <point x="885" y="1471"/>
      <point x="768" y="1471" type="curve" smooth="yes"/>
      <point x="331" y="1471"/>
      <point x="86" y="1191"/>
      <point x="86" y="726" type="curve" smooth="yes"/>
      <point x="86" y="254"/>
      <point x="345" y="-17"/>
    </contour>
  </outline>
</glyph>
<glyph name="uni0307" format="1">
  <advance width="600"/>
  <unicode hex="0307"/>
  <outline>
    <contour>
      <point x="324" y="340" type="curve" smooth="yes"/>
      <point x="425" y="340"/>
      <point x="498" y="422"/>
      <point x="498" y="517" type="curve" smooth="yes"/>
      <point x="498" y="617"/>
      <point x="420" y="693"/>
      <point x="324" y="693" type="curve" smooth="yes"/>
      <point x="225" y="693"/>
      <point x="151" y="613"/>
      <point x="151" y="517" type="curve" smooth="yes"/>
      <point x="151" y="420"/>
      <point x="223" y="340"/>
    </contour>
  </outline>
</glyph>
<glyph name="commaaccent" format="1">
  <advance width="648"/>
  <unicode hex="0326"/>
  <outline>
    <contour>
      <point x="359" y="0" type="move" name="_bot"/>
    </contour>
    <contour>
      <point x="137" y="-681" type="curve" smooth="yes"/>
      <point x="269" y="-681" type="line" smooth="yes"/>
      <point x="298" y="-682"/>
      <point x="314" y="-670"/>
      <point x="325" y="-638" type="curve" smooth="yes"/>
      <point x="506" y="-160" type="line" smooth="yes"/>
      <point x="511" y="-146"/>
      <point x="514" y="-107"/>
      <point x="472" y="-104" type="curve" smooth="yes"/>
      <point x="270" y="-104" type="line" smooth="yes"/>
      <point x="238" y="-105"/>
      <point x="205" y="-113"/>
      <point x="197" y="-160" type="curve" smooth="yes"/>
      <point x="113" y="-638" type="line" smooth="yes"/>
      <point x="111" y="-650"/>
      <point x="109" y="-680"/>
    </contour>
  </outline>
</glyph>
<glyph name="endash" format="1">
  <advance width="1024"/>
  <unicode hex="2013"/>
  <outline>
    <contour>
      <point x="112" y="413" type="curve" smooth="yes"/>
      <point x="873" y="413" type="line" smooth="yes"/>
      <point x="975" y="413"/>
      <point x="1021" y="452"/>
      <point x="1021" y="537" type="curve" smooth="yes"/>
      <point x="1021" y="646"/>
      <point x="949" y="662"/>
      <point x="873" y="662" type="curve" smooth="yes"/>
      <point x="150" y="662" type="line" smooth="yes"/>
      <point x="55" y="662"/>
      <point x="1" y="626"/>
      <point x="1" y="538" type="curve" smooth="yes"/>
      <point x="1" y="468"/>
      <point x="44" y="413"/>
    </contour>
  </outline>
</glyph>
<glyph name="quoteright" format="1">
  <advance width="648"/>
  <unicode hex="2019"/>
  <outline>
    <contour>
      <point x="164" y="887" type="curve" smooth="yes"/>
      <point x="285" y="887" type="line" smooth="yes"/>
      <point x="314" y="887"/>
      <point x="329" y="898"/>
      <point x="341" y="930" type="curve" smooth="yes"/>
      <point x="522" y="1440" type="line" smooth="yes"/>
      <point x="527" y="1454"/>
      <point x="530" y="1496"/>
      <point x="488" y="1496" type="curve" smooth="yes"/>
      <point x="297" y="1496" type="line" smooth="yes"/>
      <point x="265" y="1494"/>
      <point x="232" y="1487"/>
      <point x="224" y="1440" type="curve" smooth="yes"/>
      <point x="140" y="930" type="line" smooth="yes"/>
      <point x="138" y="918"/>
      <point x="136" y="888"/>
    </contour>
  </outline>
</glyph>
<glyph name="foursuperior" format="1">
  <advance width="782"/>
  <unicode hex="2074"/>
  <outline>
    <contour>
      <point x="212" y="918" type="line"/>
      <point x="442" y="1311" type="line"/>
      <point x="442" y="918" type="line"/>
    </contour>
    <contour>
      <point x="523" y="630" type="curve" smooth="yes"/>
      <point x="582" y="630"/>
      <point x="603" y="689"/>
      <point x="603" y="757" type="curve" smooth="yes"/>
      <point x="603" y="804" type="line"/>
      <point x="654" y="804" type="line" smooth="yes"/>
      <point x="697" y="804"/>
      <point x="719" y="830"/>
      <point x="719" y="863" type="curve" smooth="yes"/>
      <point x="719" y="906"/>
      <point x="686" y="922"/>
      <point x="643" y="922" type="curve" smooth="yes"/>
      <point x="603" y="922" type="line"/>
      <point x="603" y="1246" type="line" smooth="yes"/>
      <point x="603" y="1386"/>
      <point x="578" y="1465"/>
      <point x="487" y="1465" type="curve" smooth="yes"/>
      <point x="411" y="1465"/>
      <point x="365" y="1432"/>
      <point x="321" y="1341" type="curve"/>
      <point x="61" y="917" type="line" smooth="yes"/>
      <point x="52" y="903"/>
      <point x="47" y="887"/>
      <point x="47" y="870" type="curve" smooth="yes"/>
      <point x="47" y="811"/>
      <point x="99" y="804"/>
      <point x="160" y="804" type="curve" smooth="yes"/>
      <point x="442" y="804" type="line"/>
      <point x="442" y="774" type="line" smooth="yes"/>
      <point x="442" y="692"/>
      <point x="460" y="630"/>
    </contour>
  </outline>
</glyph>
<glyph name="uni2113" format="1">
  <advance width="831"/>
  <unicode hex="2113"/>
  <outline>
    <contour>
      <point x="575" y="1348" type="curve" smooth="yes"/>
      <point x="616" y="1348"/>
      <point x="657" y="1316"/>
      <point x="657" y="1249" type="curve" smooth="yes"/>
      <point x="657" y="1149"/>
      <point x="600" y="1067"/>
      <point x="490" y="981" type="curve"/>
      <point x="490" y="1174" type="line" smooth="yes"/>
      <point x="490" y="1311"/>
      <point x="533" y="1348"/>
    </contour>
    <contour>
      <point x="575" y="1494" type="curve" smooth="yes"/>
      <point x="406" y="1494"/>
      <point x="193" y="1391"/>
      <point x="192" y="1128" type="curve" smooth="yes"/>
      <point x="191" y="774" type="line"/>
      <point x="14" y="635" type="line" smooth="yes"/>
      <point x="-1" y="623"/>
      <point x="-8" y="609"/>
      <point x="-8" y="596" type="curve" smooth="yes"/>
      <point x="-8" y="575"/>
      <point x="9" y="557"/>
      <point x="31" y="557" type="curve" smooth="yes"/>
      <point x="41" y="557"/>
      <point x="50" y="559"/>
      <point x="63" y="569" type="curve" smooth="yes"/>
      <point x="191" y="669" type="line"/>
      <point x="191" y="289" type="line" smooth="yes"/>
      <point x="191" y="60"/>
      <point x="337" y="-17"/>
      <point x="529" y="-17" type="curve" smooth="yes"/>
      <point x="619" y="-17"/>
      <point x="690" y="-14"/>
      <point x="714" y="-10" type="curve" smooth="yes"/>
      <point x="745" y="-5"/>
      <point x="769" y="30"/>
      <point x="769" y="74" type="curve" smooth="yes"/>
      <point x="769" y="129"/>
      <point x="737" y="158"/>
      <point x="694" y="156" type="curve" smooth="yes"/>
      <point x="629" y="153" type="line" smooth="yes"/>
      <point x="537" y="149"/>
      <point x="490" y="195"/>
      <point x="490" y="352" type="curve" smooth="yes"/>
      <point x="490" y="876" type="line"/>
      <point x="715" y="1042"/>
      <point x="809" y="1137"/>
      <point x="809" y="1271" type="curve" smooth="yes"/>
      <point x="809" y="1384"/>
      <point x="731" y="1494"/>
    </contour>
  </outline>
</glyph>
<glyph name="emptyset" format="1">
  <advance width="1745"/>
  <unicode hex="2205"/>
  <outline>
    <contour>
      <point x="874" y="103" type="curve" smooth="yes"/>
      <point x="1206" y="103"/>
      <point x="1478" y="363"/>
      <point x="1478" y="680" type="curve" smooth="yes"/>
      <point x="1478" y="846.29"/>
      <point x="1407.11" y="991.263"/>
      <point x="1296.67" y="1094.92" type="curve"/>
      <point x="1378" y="1200" type="line" smooth="yes"/>
      <point x="1395" y="1226"/>
      <point x="1418" y="1254"/>
      <point x="1421" y="1280" type="curve" smooth="yes"/>
      <point x="1426" y="1314"/>
      <point x="1400" y="1348"/>
      <point x="1367" y="1352" type="curve" smooth="yes"/>
      <point x="1344" y="1355"/>
      <point x="1321" y="1346"/>
      <point x="1301" y="1320" type="curve" smooth="yes"/>
      <point x="1189.39" y="1175.38" type="line"/>
      <point x="1095.89" y="1230.7"/>
      <point x="986.964" y="1262"/>
      <point x="874" y="1262" type="curve" smooth="yes"/>
      <point x="526" y="1262"/>
      <point x="267" y="988"/>
      <point x="267" y="680" type="curve" smooth="yes"/>
      <point x="267" y="503.51"/>
      <point x="347.947" y="350.761"/>
      <point x="472.82" y="246.84" type="curve"/>
      <point x="395" y="146" type="line" smooth="yes"/>
      <point x="377" y="123"/>
      <point x="355" y="90"/>
      <point x="352" y="74" type="curve" smooth="yes"/>
      <point x="347" y="38"/>
      <point x="374" y="2"/>
      <point x="411" y="-3" type="curve" smooth="yes"/>
      <point x="446" y="-7"/>
      <point x="475" y="32"/>
      <point x="501" y="67" type="curve" smooth="yes"/>
      <point x="583.453" y="173.521" type="line"/>
      <point x="670.814" y="128.299"/>
      <point x="770.307" y="103"/>
    </contour>
    <contour>
      <point x="573.586" y="377.412" type="line"/>
      <point x="491.088" y="453.149"/>
      <point x="442" y="560.744"/>
      <point x="442" y="680" type="curve" smooth="yes"/>
      <point x="442" y="917"/>
      <point x="630" y="1095"/>
      <point x="874" y="1095" type="curve" smooth="yes"/>
      <point x="953.207" y="1095"/>
      <point x="1025.53" y="1076.18"/>
      <point x="1087.34" y="1043.14" type="curve"/>
    </contour>
    <contour>
      <point x="684.751" y="304.388" type="curve"/>
      <point x="1193.65" y="961.837" type="line"/>
      <point x="1263.18" y="887.797"/>
      <point x="1304" y="788.747"/>
      <point x="1304" y="680" type="curve" smooth="yes"/>
      <point x="1304" y="437"/>
      <point x="1106" y="265"/>
      <point x="874" y="265" type="curve" smooth="yes"/>
      <point x="804.826" y="265"/>
      <point x="740.968" y="279.127"/>
    </contour>
  </outline>
</glyph>
